<svg xmlns="http://www.w3.org/2000/svg" data-name="Layer 1" viewBox="0 0 64 64" x="0px" y="0px"><path d="M44.953,5.773c-6.899,.286-11.197,5.003-12.951,7.411-1.758-2.407-6.062-7.125-12.951-7.411-6.894-.268-12.532,4.147-15.04,8.647C-.052,21.785,2.897,30.78,5.282,34.937c7.479,12.933,23.186,21.586,26.258,23.189,.146,.076,.304,.113,.463,.113s.318-.038,.464-.114c3.078-1.612,18.808-10.305,26.239-23.189,2.396-4.147,5.36-13.136,1.269-20.516-2.484-4.498-8.091-8.912-15.021-8.646Zm12.021,28.163h0c-6.842,11.862-21.117,20.102-24.972,22.172-3.85-2.06-18.103-10.265-24.987-22.169-2.175-3.792-4.886-11.965-1.254-18.549,2.144-3.848,6.864-7.629,12.686-7.629,.174,0,.349,.003,.523,.01,7.807,.325,11.993,7.421,12.167,7.723,.179,.31,.509,.5,.866,.5h0c.357,0,.688-.191,.866-.501,.436-.757,4.477-7.403,12.163-7.722,6.086-.237,11.003,3.655,13.191,7.617,3.667,6.614,.785,15.025-1.251,18.548Z"/></svg>
