<svg xmlns="http://www.w3.org/2000/svg" viewBox="0 0 48 48" x="0px" y="0px"><title>Coffee vol.1</title><g data-name="Layer 25"><path d="M11.75244,14.47461a1.00006,1.00006,0,0,0,.5332,1.92773c.48975-.13476,2.958-.89648,3.42432-2.64843a2.646,2.646,0,0,0-.9082-2.61817,10.0992,10.0992,0,0,1-1.78565-2.05469c.01368-.03808.12061-.25195.90723-.77636a3.59025,3.59025,0,0,0,1.63672-4.46485.99967.99967,0,1,0-1.81348.8418c.01905.042.458,1.03223-.93262,1.959A3.34719,3.34719,0,0,0,11.02979,8.8623c-.12061,1.19239.86376,2.1836,2.353,3.68262.28565.28809.43311.54785.39453.69336C13.668,13.65234,12.61816,14.23242,11.75244,14.47461Z"/><path d="M17.47021,6.64063A3.34719,3.34719,0,0,0,15.686,8.8623c-.12061,1.19239.86376,2.1836,2.353,3.68262.28565.28809.43311.54785.39453.69336-.10937.41406-1.15918.99414-2.0249,1.23633a1.00006,1.00006,0,0,0,.5332,1.92773c.48975-.13476,2.958-.89648,3.42432-2.64843a2.646,2.646,0,0,0-.9082-2.61817,10.0992,10.0992,0,0,1-1.78565-2.05469c.01368-.03808.12061-.25195.90723-.77636a3.59025,3.59025,0,0,0,1.63672-4.46485.99967.99967,0,1,0-1.81348.8418C18.42188,4.72363,18.86084,5.71387,17.47021,6.64063Z"/><path d="M22.12646,6.64063A3.34719,3.34719,0,0,0,20.34229,8.8623c-.12012,1.19239.86376,2.1836,2.353,3.68262.28565.28809.43311.54785.39453.69336-.10937.41406-1.15918.99414-2.0249,1.23633a1.00006,1.00006,0,0,0,.5332,1.92773c.48975-.13476,2.958-.89648,3.42432-2.64843a2.644,2.644,0,0,0-.9082-2.61719A10.10035,10.10035,0,0,1,22.3291,9.08105c.01319-.03808.12061-.25195.90674-.77636a3.59153,3.59153,0,0,0,1.6377-4.46485,1.00011,1.00011,0,0,0-1.81446.8418C23.07861,4.72363,23.51709,5.71387,22.12646,6.64063Z"/><path d="M33.21228,39.35449H38.458a8.17056,8.17056,0,0,0,8.16162-8.16113V25.001a4.8908,4.8908,0,0,0-4.98438-4.93067,12.258,12.258,0,0,0-6.75439,2.01538V19.99316a.99974.99974,0,0,0-1-1H2.38037a.99974.99974,0,0,0-1,1V33.61621a11.11306,11.11306,0,0,0,4.77783,9.123h-2.792a1,1,0,0,0,0,2H33.88086a1,1,0,0,0,0-2H30.11737A10.456,10.456,0,0,0,33.21228,39.35449Zm8.4762-17.28418A2.89966,2.89966,0,0,1,44.61963,25.001v6.19238A6.0957,6.0957,0,0,1,38.458,37.35449H34.21436c.117-.31317.21649-.63391.30316-.95923.01623-.06085.02643-.12341.04156-.18469.08374-.3385.14929-.68243.19977-1.03076.01575-.10883.031-.217.04346-.32654a10.92088,10.92088,0,0,0,.07855-1.23706V24.582A10.279,10.279,0,0,1,41.68848,22.07031Zm-17.93067,20.669H12.50342a9.13363,9.13363,0,0,1-9.123-9.123V20.99316H32.88086V33.61621a8.43445,8.43445,0,0,1-1.13281,4.291A8.834,8.834,0,0,1,23.75781,42.73926Z"/></g></svg>
