<svg xmlns="http://www.w3.org/2000/svg" xmlns:xlink="http://www.w3.org/1999/xlink" version="1.1" x="0px" y="0px" viewBox="0 0 128 128" style="enable-background:new 0 0 128 128;" xml:space="preserve"><title>89 SEO and marketing 3. final ai</title><path d="M83.8,71H72.4c-2.9,0-5.3,2.4-5.3,5.3V79h-16c-1.1,0-2,0.9-2,2v35c0,1.7,1.3,3,3,3l0,0h52.1c1.6,0,3-1.4,3-3V82  c0.1-0.7-0.1-1.5-0.4-2.2c-0.6-0.8-1.6-0.8-2.6-0.8h-15v-2.7C89.1,73.4,86.7,71,83.8,71z M71.1,76.3c0-0.7,0.6-1.3,1.3-1.3h11.5  c0.7,0,1.3,0.6,1.3,1.3V79H71.1V76.3z M84.3,99v1.4c0,0.6-0.5,1.1-1.1,1.1c-0.6,0-1.1-0.5-1.1-1.1V99H84.3z M91.9,97.7L103.2,86v29  H53.1V84.5l23.1,14c0.6,0.3,1.2,0.4,1.9,0.4l0,0v1.4c0,2.8,2.3,5.1,5.1,5.1s5.1-2.3,5.1-5.1V99C89.6,99.1,91,98.7,91.9,97.7  L91.9,97.7z"/><path d="M13,71.7v52.4c0,2.2,1.7,3.9,3.9,3.9H23c1.1,0,2-0.9,2-2V86c0.1-4.3,3.5-7.8,7.8-8c4.4,0,8.1,3.6,8.2,8v40c0,1.1,0.9,2,2,2  h68.2c2.2,0,3.9-1.8,3.9-3.9V71.6c-1.4-0.3-2.7-0.8-4-1.5V124H45.1V86c0-6.6-5.4-12-12-12s-12,5.4-12,12v38h-4V70.2  C15.8,70.9,14.4,71.4,13,71.7z"/><ellipse cx="91.1" cy="16" rx="8" ry="8"/><path d="M96.8,43.1l0.2-0.3c0.1-0.1,0.1-0.2,0.2-0.3l0.8-1.4c0.6-1,1.2-2,1.8-2.9c0.1-0.1,0.1-0.2,0.2-0.3c0.2-0.4,0.5-0.8,0.7-1.3  c0.5-0.9,1-1.7,1.4-2.6c3.2-6,6.1-12.4,6.1-16.4c0-9.7-7.6-17.6-17-17.6s-17,7.9-17,17.6c0,4.1,2.8,10.4,6.1,16.4l0,0  c0.2,0.4,0.4,0.7,0.6,1.1l0.1,0.2c0.6,1,1.2,2.1,1.8,3.2l1.2,2c0.4,0.6,0.8,1.3,1.1,1.9c0.2,0.3,0.3,0.6,0.5,0.9l0,0  c0.9,1.5,1.7,2.7,2.4,3.7c-4.1,0.4-6.5,1.4-7.2,2.1l0,0c0.2,0.2,0.4,0.3,0.7,0.5c0.5,0.2,0.9,0.4,1.4,0.6c2.7,0.8,5.5,1.2,8.3,1.2  c6,0,9.6-1.4,10.4-2.2l-0.2-0.2c-0.2-0.1-0.3-0.2-0.5-0.3c-0.6-0.3-1.2-0.5-1.8-0.7l0,0l-0.5-0.1h-0.1l0,0c-1.4-0.4-2.8-0.6-4.3-0.7  C95,45.9,95.8,44.6,96.8,43.1L96.8,43.1z M92.2,42.8c-0.4,0.6-0.7,1.1-1.1,1.7L90,42.9c-1.6-2.5-3.5-5.6-5.3-8.8  c-3.5-6.3-6.6-13-6.6-16.5c0-7.5,5.8-13.6,13-13.6s13,6.1,13,13.6c0,3.6-3.1,10.2-6.7,16.4C95.7,37.2,93.8,40.2,92.2,42.8z"/><path d="M114.5,35c-0.4-0.6-1-1-1.7-1h-6.1c-1.8,3.5-3.8,7-5.8,10.1l0,0c0.4,0.1,0.7,0.3,1.1,0.4c0.3,0.1,0.5,0.2,0.8,0.4  c0.7,0.4,1.4,0.9,2,1.5c0.3,0.3,0.6,0.8,0.8,1.2l0.1,0.3c0,0.1,0,0.1,0,0.2c0-0.2-0.1-0.4-0.2-0.5c0.1,0.2,0.1,0.4,0.2,0.6  c0,0,0,0.1,0,0.2c0,0.2,0.1,0.4,0.1,0.7c0,4.3-7.3,6.2-14.6,6.2c-7.2,0-14.4-1.9-14.4-6.2c0-0.8,0.3-1.6,0.8-2.2  c0.2-0.2,0.4-0.4,0.6-0.6c0.2-0.2,0.4-0.4,0.7-0.6c0.3-0.2,0.5-0.4,0.8-0.5l0,0c0.3-0.2,0.6-0.3,0.9-0.5c0.3-0.1,0.7-0.3,1-0.4  c-1.9-3.2-3.9-6.7-5.8-10.2H15.4c-0.7,0-1.4,0.4-1.7,1L0.2,59C0.1,59.4,0,59.8,0,60.2C0.1,64.5,4.4,68,9.7,68c1.5,0,3-0.3,4.4-0.9  c1.2-0.5,2.4-1.3,3.3-2.3c2,2.1,4.8,3.2,7.7,3.2c2.9,0.1,5.7-1.1,7.8-3.2c4.3,4.2,11.2,4.2,15.5,0c4.3,4.2,11.2,4.2,15.5,0  c4.3,4.2,11.2,4.2,15.5,0c4.3,4.2,11.2,4.2,15.5,0c4.3,4.2,11.2,4.2,15.5,0c2,2.1,4.8,3.2,7.7,3.2c5.3,0,9.6-3.5,9.7-7.8  c0-0.4,0-0.8-0.2-1.2L114.5,35z M67.1,54H15c-1.1,0-2-0.9-2-2s0.9-2,2-2h52.1c1.1,0,2,0.9,2,2S68.2,54,67.1,54z M70.7,46H19.4  c-1.1,0-2-0.9-2-2s0.9-2,2-2h51.2c1.1,0,2,0.9,2,2S71.8,46,70.7,46z"/></svg>
