<svg xmlns="http://www.w3.org/2000/svg" xmlns:xlink="http://www.w3.org/1999/xlink" version="1.1" x="0px" y="0px" viewBox="0 0 512 512" enable-background="new 0 0 512 512" xml:space="preserve"><g><path d="M213.2,230.6c-36,0-65.3,29.3-65.3,65.3c0,50.5,88.9,125.6,99.1,134c5.3,4.3,12.6,4.2,18.1-0.1c16.5-13.9,99-85.7,99-133.9   c0-36-29.3-65.3-65.3-65.3c-16,0-31.1,5.8-42.8,16C244.3,236.4,229.2,230.6,213.2,230.6z M267.8,275.6c6.9-10.5,18.5-16.8,31-16.8   c20.4,0,37.1,16.6,37.1,37.1c0,25-45.8,74.2-79.9,104.5c-34.1-29.9-79.8-78.7-79.8-104.5c0-20.4,16.6-37.1,37.1-37.1   c12.5,0,24.1,6.3,31,16.8C249.1,283.9,261.8,284.4,267.8,275.6z"/><path d="M442.6,202L263.9,80.6c-4.8-3.3-11.1-3.3-15.9,0L69.4,202c-3.9,2.6-6.2,7-6.2,11.7v265.5c0,7.8,6.3,14.1,14.1,14.1h357.4   c7.8,0,14.1-6.3,14.1-14.1V213.7C448.8,209,446.5,204.6,442.6,202z M420.6,465.1H91.4V221.1L256,109.3l164.6,111.8V465.1z"/><path d="M503.8,184.1L263.9,21.1c-4.8-3.3-11.1-3.3-15.9,0L139.5,94.9V45.5c0-7.8-6.3-14.1-14.1-14.1H63.6   c-7.8,0-14.1,6.3-14.1,14.1V156l-41.3,28c-6.4,4.4-8.1,13.2-3.7,19.6c4.4,6.4,13.1,8.1,19.6,3.7L256,49.9l232,157.6   c6.4,4.6,15.1,2.4,19.6-3.7C511.9,197.2,510.3,188.5,503.8,184.1z M111.2,114.1l-33.5,22.8V59.6h33.5V114.1z"/></g></svg>
