<svg xmlns="http://www.w3.org/2000/svg" xmlns:xlink="http://www.w3.org/1999/xlink" version="1.1" x="0px" y="0px" viewBox="0 0 100 100" enable-background="new 0 0 100 100" xml:space="preserve"><g><path d="M53.176,73.822C53.44,73.942,53.721,74,54,74c0.477,0,0.949-0.171,1.321-0.499l25-22C80.753,51.122,81,50.575,81,50   s-0.247-1.122-0.679-1.501l-25-22c-0.59-0.519-1.428-0.645-2.146-0.321C52.46,26.501,52,27.214,52,28v12H26   c-5.514,0-10,4.486-10,10s4.486,10,10,10h26v12C52,72.786,52.46,73.499,53.176,73.822z"/></g></svg>
