<svg xmlns="http://www.w3.org/2000/svg" xmlns:xlink="http://www.w3.org/1999/xlink" version="1.1" x="0px" y="0px" viewBox="0 0 100 100" enable-background="new 0 0 100 100" xml:space="preserve"><g><g><path d="M91.1,38.6h-27l-17-4.9c-2.8-0.8-5.7-0.2-8,1.6l-7.4,5.9c-0.4,0.3-0.7,0.7-1.1,1v-9.5c4.7-2.2,7.8-6.9,7.8-12.2    c0-5.5-3.3-10.4-8.4-12.5c-0.3-0.1-0.7-0.1-0.9,0.1c-0.3,0.2-0.4,0.5-0.4,0.8v8l-3.7,2l-3.7-2V9c0-0.3-0.2-0.6-0.4-0.8    C20.7,8,20.3,7.9,20,8c-5.1,2.1-8.4,7-8.4,12.5c0,5.3,3,10,7.8,12.2v13.4H17c-2.7,0-5,2.2-5,5v3c0,1.1,0.4,2.2,1,3    c-3,0.2-5.2,2.1-5.2,4.4v4.1c0,2.5,2.6,4.4,5.9,4.4h0.7c-0.5,0.7-0.8,1.6-0.8,2.6v3.9c0,2.5,2,4.6,4.6,4.6h1    c-0.4,0.6-0.6,1.3-0.6,2.1v4.8c0,2.3,1.8,4.1,4.1,4.1h21.6c0.7,0,1.4-0.2,2-0.5c0,0,0,0,0,0l20.6-10.4h24.3c0.6,0,1-0.4,1-1V39.6    C92.1,39.1,91.7,38.6,91.1,38.6z M20.8,31.1c-4.3-1.8-7.2-5.9-7.2-10.6c0-4.2,2.2-7.9,5.8-10v7c0,0.4,0.2,0.7,0.5,0.9l4.7,2.5    c0.3,0.2,0.7,0.2,1,0l4.7-2.5c0.3-0.2,0.5-0.5,0.5-0.9v-7c3.6,2,5.8,5.8,5.8,10c0,4.7-2.8,8.8-7.2,10.6c-0.4,0.2-0.6,0.5-0.6,0.9    v14.1h-7.3V32C21.4,31.6,21.1,31.3,20.8,31.1z M14,51.1c0-1.6,1.3-3,3-3h3.4c0,0,0,0,0,0s0,0,0,0h8.5v9H17c-1.6,0-3-1.3-3-3V51.1z     M9.9,65.6v-4.1c0-1.3,1.8-2.4,3.9-2.4H17h11.9v5.5c0,1.3,0.4,2.5,1,3.4H18.2h-4.4C11.6,68.1,9.9,67,9.9,65.6z M15.6,76.5v-3.9    c0-1.4,1.1-2.6,2.6-2.6h14c0.9,0.5,2,0.8,3.1,0.8s2.2-0.3,3.1-0.8H40c1.4,0,2.5,1.1,2.5,2.6v3.9c0,1.4-1.1,2.6-2.5,2.6H18.2    C16.8,79.1,15.6,77.9,15.6,76.5z M22.6,90c-1.2,0-2.1-0.9-2.1-2.1v-4.8c0-1.2,0.9-2.1,2.1-2.1h21.6c1.2,0,2.1,0.9,2.1,2.1v4.8    c0,0.7-0.4,1.4-0.9,1.7l-0.1,0c0,0,0,0,0,0C45,89.9,44.7,90,44.3,90H22.6z M90.1,79.1H66.6c-0.2,0-0.3,0-0.5,0.1l-17.8,9    c0-0.1,0-0.2,0-0.3v-4.8c0-2.3-1.8-4.1-4.1-4.1h-0.5c0.5-0.7,0.8-1.6,0.8-2.6v-3.9c0-2.4-1.8-4.3-4.1-4.5c0.7-1,1.1-2.2,1.1-3.5    V54.3c3.8,3.2,13.6,9.7,24.7,3.4c0.5-0.3,0.6-0.9,0.4-1.4c-0.3-0.5-0.9-0.6-1.4-0.4c-12.8,7.4-23.5-4.1-23.9-4.6    c-0.3-0.3-0.7-0.4-1.1-0.3c-0.4,0.1-0.6,0.5-0.6,0.9v12.6c0,2.3-1.9,4.3-4.3,4.3s-4.3-1.9-4.3-4.3v-6.5v-11c0-1.7,0.8-3.3,2.1-4.4    l7.4-5.9c1.7-1.4,4-1.8,6.2-1.2l17.1,4.9c0.1,0,0.2,0,0.3,0h26.1V79.1z"/></g></g></svg>
